<?xml version="1.0" encoding="UTF-8"?>
<!DOCTYPE svg PUBLIC "-//W3C//DTD SVG 1.1//EN" "http://www.w3.org/Graphics/SVG/1.1/DTD/svg11.dtd">
<!-- Creator: CorelDRAW -->
<svg xmlns="http://www.w3.org/2000/svg" xml:space="preserve" width="239.112mm" height="235.037mm" version="1.1" style="shape-rendering:geometricPrecision; text-rendering:geometricPrecision; image-rendering:optimizeQuality; fill-rule:evenodd; clip-rule:evenodd"
viewBox="0 0 24613.14 24193.7"
 xmlns:xlink="http://www.w3.org/1999/xlink"
 xmlns:xodm="http://www.corel.com/coreldraw/odm/2003">
 <defs>
  <style type="text/css">
   <![CDATA[
    .str0 {stroke:#332C2B;stroke-width:17.43;stroke-miterlimit:22.9256}
    .fil6 {fill:url(#id0)}
    .fil9 {fill:url(#id1)}
    .fil4 {fill:url(#id2)}
    .fil0 {fill:url(#id3)}
    .fil7 {fill:url(#id4)}
    .fil10 {fill:url(#id5)}
    .fil14 {fill:url(#id6)}
    .fil3 {fill:url(#id7)}
    .fil8 {fill:url(#id8)}
    .fil1 {fill:url(#id9)}
    .fil12 {fill:url(#id10)}
    .fil5 {fill:url(#id11)}
    .fil11 {fill:url(#id12)}
    .fil2 {fill:url(#id13)}
    .fil13 {fill:url(#id14)}
   ]]>
  </style>
  <linearGradient id="id0" gradientUnits="userSpaceOnUse" x1="14443.4" y1="15522.37" x2="16329.69" y2="9794.87">
   <stop offset="0" style="stop-opacity:1; stop-color:#C9C9C9"/>
   <stop offset="1" style="stop-opacity:1; stop-color:#0C919A"/>
  </linearGradient>
  <linearGradient id="id1" gradientUnits="userSpaceOnUse" xlink:href="#id0" x1="16156.2" y1="16212.6" x2="18561.42" y2="2866.66">
  </linearGradient>
  <linearGradient id="id2" gradientUnits="userSpaceOnUse" xlink:href="#id0" x1="21704.74" y1="7495.72" x2="21800.37" y2="5795.38">
  </linearGradient>
  <linearGradient id="id3" gradientUnits="userSpaceOnUse" xlink:href="#id0" x1="3153.83" y1="4027.37" x2="21461.45" y2="20167.26">
  </linearGradient>
  <linearGradient id="id4" gradientUnits="userSpaceOnUse" xlink:href="#id0" x1="16547.52" y1="18298.27" x2="16184.88" y2="23537.51">
  </linearGradient>
  <linearGradient id="id5" gradientUnits="userSpaceOnUse" xlink:href="#id0" x1="11780.9" y1="6692.14" x2="9678.74" y2="1308.08">
  </linearGradient>
  <linearGradient id="id6" gradientUnits="userSpaceOnUse" xlink:href="#id0" x1="20833.61" y1="16025.91" x2="23920.58" y2="16123.46">
  </linearGradient>
  <linearGradient id="id7" gradientUnits="userSpaceOnUse" xlink:href="#id0" x1="4695.01" y1="21255.51" x2="5187.35" y2="16217.2">
  </linearGradient>
  <linearGradient id="id8" gradientUnits="userSpaceOnUse" xlink:href="#id0" x1="18513.25" y1="15520.37" x2="24509.72" y2="16344.16">
  </linearGradient>
  <linearGradient id="id9" gradientUnits="userSpaceOnUse" xlink:href="#id0" x1="10015.49" y1="17170.42" x2="11312.69" y2="13817.58">
  </linearGradient>
  <linearGradient id="id10" gradientUnits="userSpaceOnUse" xlink:href="#id0" x1="2197.42" y1="16195.44" x2="3945.77" y2="11311.39">
  </linearGradient>
  <linearGradient id="id11" gradientUnits="userSpaceOnUse" xlink:href="#id0" x1="20195.03" y1="9220.43" x2="20855.68" y2="2768.12">
  </linearGradient>
  <linearGradient id="id12" gradientUnits="userSpaceOnUse" xlink:href="#id0" x1="2860.73" y1="13873.3" x2="5530.17" y2="8986.1">
  </linearGradient>
  <linearGradient id="id13" gradientUnits="userSpaceOnUse" xlink:href="#id0" x1="8549.2" y1="16580.03" x2="9470.41" y2="12666.32">
  </linearGradient>
  <linearGradient id="id14" gradientUnits="userSpaceOnUse" xlink:href="#id0" x1="14448.34" y1="18765.95" x2="14265.79" y2="22294.08">
  </linearGradient>
 </defs>
 <g id="Layer_x0020_1">
  <metadata id="CorelCorpID_0Corel-Layer"/>
  <g id="_2589000476464">
   <path class="fil0 str0" d="M11737.11 19597.24l789.68 -323.45 0 4733.76 -679.34 21.91 -1804.02 -3738.48 771.45 -316 901.08 1906.93 21.15 -2284.66zm-9597.56 -5735.84c278.37,0 504,225.64 504,504.01 0,232.86 -157.9,428.82 -372.49,486.64l0 1485.62c262.96,482.11 525.93,964.21 788.9,1446.32 1110.31,-2235.22 2220.6,-4470.45 3330.91,-6705.67 1088.39,2220.63 2176.79,4441.22 3265.18,6661.85 -211.83,124.19 -423.67,248.34 -635.5,372.53 -876.56,-1702 -1753.11,-3403.95 -2629.67,-5105.95 -781.6,1577.81 -1563.18,3221.36 -2344.78,4799.16 387.15,-168 766.97,-328.71 1161.43,-569.78 264.12,-521.36 567.97,-1141.89 835.95,-1672.83 -96.49,-91.83 -156.62,-221.45 -156.62,-365.15 0,-278.36 225.64,-504 504.01,-504 278.37,0 504.01,225.64 504.01,504 0,278.37 -225.64,504.01 -504.01,504.01 -24.82,0 -49.2,-1.81 -73.06,-5.28 -260.43,542.14 -520.52,1174.5 -825.4,1714.58 -564.79,326.17 -1110.31,555.15 -1665.47,832.72 -730.46,1453.62 -1460.94,2907.27 -2191.4,4360.88 915.93,-540.66 1787.53,-1014.75 2645.9,-1453.02l-14.26 7.2 786.93 -1753.63 2236.73 -1012.83c-0.98,-12.87 -1.5,-25.89 -1.5,-39.01 0,-278.37 225.64,-504.01 504.01,-504.01 278.37,0 504.01,225.64 504.01,504.01 0,278.37 -225.64,504.01 -504.01,504.01 -151.88,0 -288.04,-67.17 -380.45,-173.42l-2095.82 940.4 -615.07 1314.76 -8.13 4.11c1953.37,-976.81 3863.71,-1791.78 6101.7,-2809.01 463.9,-210.87 938.9,-1003.14 964.21,-1512.07 64.79,-1302.91 -29.21,-2717.33 -43.82,-4075.99 -109.55,-986.13 -1249.09,-2761.16 -3155.6,-3593.91 1424.39,1380.58 2059.91,2300.97 2410.52,3506.24 -2147.56,-262.97 -5412.73,-1796.96 -6135.89,-5588.06 613.6,131.49 1227.18,262.97 1840.78,394.45 -219.15,-540.52 -438.27,-1081.09 -657.42,-1621.63 2410.52,482.1 4207.48,920.39 5719.54,3878.77 -197.22,-4733.42 1621.63,-8371.14 6661.83,-9510.68 -182.61,635.49 -365.24,1271.02 -547.83,1906.51 628.19,-241.04 1256.39,-482.11 1884.58,-723.15 -460.18,4054.09 -2936.46,6157.84 -6289.3,6924.82 458.98,-1693.01 1183.36,-2870.73 2542.01,-4251.31 -1008.05,701.24 -3177.53,2191.38 -3396.66,4930.64 -87.66,2739.24 -1.94,5170.13 -43.84,7626.06 -7.25,425.43 -175.31,832.73 -262.97,1249.1 3243.27,-1358.69 4426.63,-2169.49 7932.87,-6333.15 -1477.69,1199.84 -2914.57,2454.37 -4448.55,3506.24 547.86,-3813.03 3067.97,-6793.33 7560.33,-7231.6 -248.35,628.19 -496.72,1256.39 -745.06,1884.58 672.01,-146.08 1344.05,-292.18 2016.07,-438.27 -460.19,1884.59 -1862.7,5237.43 -7122.05,6420.79 -547.86,387.15 -1095.7,774.27 -1643.55,1161.42 4273.22,219.15 7165.87,2366.71 8327.32,6179.74 -613.6,-146.09 -1227.17,-292.19 -1840.76,-438.27 241.04,598.97 482.11,1197.97 723.15,1796.95 -3747.29,-547.85 -6420.8,-3177.53 -7078.23,-6026.35 1775.04,372.55 2640.21,1325.24 3966.45,2257.14 -898.47,-1073.79 -1906.52,-2651.6 -4054.07,-3002.2 -1533.99,-262.97 -8374.28,3037.4 -11000.82,4360.86 -1380.58,723.15 -2476.27,1380.57 -3791.1,2257.14 -357.94,-7.3 -715.87,-14.62 -1073.79,-21.91 971.53,-1957.64 1943.03,-3915.3 2914.57,-5872.92 -314.12,-555.16 -628.21,-1110.31 -942.31,-1665.48 -25.45,-279.53 -1.97,-1081.71 -0.1,-1623.54 -203.29,-64.91 -350.53,-255.35 -350.53,-480.19 0,-278.37 225.64,-504.01 504.01,-504.01z"/>
   <path class="fil1 str0" d="M10488.79 17411.46l328.7 -21.93 -9.11 -2825.99c208.02,-62.07 359.72,-254.82 359.72,-483 0,-278.34 -225.68,-504 -504.01,-504 -278.34,0 -504.01,225.67 -504.01,504 0,208.67 126.83,387.73 307.59,464.31l21.12 2866.61zm175.3 -3593.88c145.23,0 262.97,117.74 262.97,262.96 0,145.23 -117.74,262.97 -262.97,262.97 -145.22,0 -262.97,-117.74 -262.97,-262.97 0,-145.22 117.75,-262.96 262.97,-262.96z"/>
   <path class="fil2 str0" d="M9135.36 16677.84c239.3,-149.92 522.44,-299.82 761.74,-449.74 5.93,-366.6 -58.47,-715.87 -43.84,-1073.79 -276.15,-531.03 -593.41,-1185.55 -872.09,-1724.17 91.96,-91.29 148.93,-217.83 148.93,-357.65 0,-278.34 -225.67,-504.01 -504.01,-504.01 -278.34,0 -504.01,225.68 -504.01,504.01 0,278.35 225.68,504.01 504.01,504.01 39.22,0 77.39,-4.48 114.04,-12.97l850.16 1700.34c7.3,255.66 14.63,511.33 21.93,767 -200.9,130.06 -401.81,260.15 -602.71,390.21 41.96,85.59 83.89,171.16 125.85,256.75zm-509.27 -3868.32c145.23,0 262.97,117.75 262.97,262.97 0,145.23 -117.74,262.97 -262.97,262.97 -145.22,0 -262.97,-117.74 -262.97,-262.97 0,-145.22 117.75,-262.97 262.97,-262.97z"/>
   <path class="fil3 str0" d="M2308.16 21266.52l1453.03 -699.45 854.64 -1643.55 1884.59 -898.49 461.44 -822.52c34.92,7.63 71.12,11.72 108.32,11.72 278.34,0 504,-225.68 504,-504.01 0,-278.35 -225.67,-504.01 -504,-504.01 -278.35,0 -504.01,225.67 -504.01,504.01 0,139.17 56.42,265.19 147.63,356.37l-344.86 651.65 -2016.07 986.12 -810.82 1621.63 -1022.59 520.08 -211.29 420.44zm4762.02 -4819.27c145.22,0 262.96,117.74 262.96,262.97 0,145.22 -117.74,262.97 -262.96,262.97 -145.23,0 -262.97,-117.75 -262.97,-262.97 0,-145.23 117.74,-262.97 262.97,-262.97z"/>
   <path class="fil4 str0" d="M22782.52 5797.07c278.34,0 504.01,225.67 504.01,504.01 0,278.34 -225.68,504 -504.01,504 -224.31,0 -414.34,-146.57 -479.71,-349.13l-857.05 20.42 -1026.2 1017.65 -200.98 -184.93 1139.51 -1139.51 937.78 0c57.82,-214.57 253.81,-372.52 486.65,-372.52zm0 241.04c145.22,0 262.96,117.74 262.96,262.97 0,145.22 -117.74,262.96 -262.96,262.96 -145.23,0 -262.97,-117.74 -262.97,-262.96 0,-145.23 117.74,-262.97 262.97,-262.97z"/>
   <path class="fil5 str0" d="M23242.68 2751.01c278.37,0 504.01,225.64 504.01,504.01 0,278.37 -225.64,504.01 -504.01,504.01 -88.34,0 -171.37,-22.75 -243.56,-62.69l-5497.89 5541.19 -197.22 -175.31 5490.2 -5577c-35.51,-69.01 -55.54,-147.25 -55.54,-230.2 0,-278.37 225.64,-504.01 504.01,-504.01z"/>
   <path class="fil6 str0" d="M15857.7 9500.54c278.37,0 504.01,225.64 504.01,504.01 0,208.38 -126.44,387.17 -306.79,463.94l0 1004.28c-438.27,569.75 -872.17,915.69 -1336.76,1358.66 0,935 21.84,1862.12 21.84,2797.13 -94.96,73.04 -212.03,115.1 -306.99,188.15 -7.3,-1044.57 -14.34,-2050.27 -21.64,-3094.84 438.28,-452.9 876.57,-788.91 1314.84,-1358.66 0,-250.13 -17.81,-607 -21.32,-878.26 -203.65,-64.71 -351.21,-255.3 -351.21,-480.4 0,-278.37 225.64,-504.01 504.01,-504.01z"/>
   <path class="fil7 str0" d="M17588.88 22539.33c278.37,0 504.01,225.64 504.01,504.01 0,278.37 -225.64,504.01 -504.01,504.01 -278.37,0 -504.01,-225.64 -504.01,-504.01 0,-72.87 15.48,-142.1 43.3,-204.64 -1342.95,-1132.57 -1995.34,-2628.56 -2488.66,-4430.27 94.96,-51.15 197.98,-68.85 292.93,-119.99 514.88,2016.64 1201.81,3001.01 2403.17,4319.06 74.42,-43.33 160.94,-68.17 253.26,-68.17z"/>
   <path class="fil8 str0" d="M23264.61 18068.88c278.37,0 504.01,225.64 504.01,504.01 0,278.37 -225.64,504.01 -504.01,504.01 -278.37,0 -504.01,-225.64 -504.01,-504.01 0,-94.24 25.88,-182.42 70.86,-257.84l-1232.29 -1232.3c-357.93,-21.93 -715.87,-43.82 -1073.79,-65.73 -696.66,-318.44 -1161.43,-657.43 -2038,-767.01 7.3,-94.96 14.63,-189.9 21.93,-284.86 942.28,-175.33 1643.54,-525.93 2344.78,-920.39 430.98,-7.3 861.95,-14.62 1292.92,-21.91 459.41,-466.48 980.33,-1015 1443.73,-1486.78 -40.23,-72.39 -63.15,-155.73 -63.15,-244.41 0,-278.34 225.67,-504.01 504.01,-504.01 278.34,0 504,225.68 504,504.01 0,278.34 -225.67,504.01 -504,504.01 -93.77,0 -181.52,-25.62 -256.71,-70.22 -483.41,497.47 -1041.29,1069.29 -1518.3,1560.36 -409.08,14.61 -818.12,29.22 -1227.2,43.82 -547.83,306.82 -1117.61,569.79 -1731.19,788.91 547.83,175.33 964.21,460.19 1358.66,635.52 350.64,7.3 701.24,14.6 1051.88,21.89 418.13,425.12 916.08,910.08 1341.55,1340.69 65.03,-30.59 137.7,-47.75 214.33,-47.75zm766.98 -5040.21c145.22,0 262.96,117.74 262.96,262.97 0,145.23 -117.74,262.97 -262.96,262.97 -145.23,0 -262.97,-117.74 -262.97,-262.97 0,-145.23 117.74,-262.97 262.97,-262.97z"/>
   <path class="fil9 str0" d="M20722.6 2685.28c278.34,0 504.01,225.67 504.01,504.01 0,241.66 -170.1,443.57 -397.11,492.6 -7.12,282.56 -11.29,620.3 -19.24,887.97 -1373.27,1358.66 -2746.56,2717.34 -4119.84,4076 -482.09,109.56 -954.88,113.03 -1490.14,153.4 -591.68,372.53 -935.01,861.95 -1402.51,1292.92 -7.3,635.49 -14.6,1358.68 -21.89,1994.18 350.61,-416.37 730.46,-774.31 1095.69,-1117.61 36.52,80.33 73.04,160.7 109.56,241.04 -394.45,467.49 -854.64,788.9 -1183.36,1402.5 -7.3,1241.8 -13.93,2364.9 -21.23,3606.7 -94.96,21.93 -190.57,153.07 -285.53,174.99 7.3,-2154.88 14.6,-4300.32 21.89,-6455.2 547.86,-482.12 1008.03,-1029.95 1643.55,-1446.33 489.42,-51.12 964.21,-43.82 1468.22,-153.38 1300.24,-1307.54 2600.45,-2615.08 3900.69,-3922.62 6.31,-215.03 4.43,-520.42 8.54,-759.71 -184.88,-74.7 -315.33,-255.85 -315.33,-467.46 0,-278.35 225.68,-504.01 504.01,-504.01zm0 241.04c145.23,0 262.97,117.74 262.97,262.97 0,145.22 -117.74,262.96 -262.97,262.96 -145.23,0 -262.97,-117.74 -262.97,-262.96 0,-145.23 117.74,-262.97 262.97,-262.97z"/>
   <path class="fil10 str0" d="M8669.91 2729.12c278.37,0 504.01,225.64 504.01,504.01 0,31.53 -2.92,62.38 -8.46,92.3 292.99,148.46 613.86,377.67 841.21,587.01 28.71,590.93 55.54,1100.54 43.82,1533.99 197.22,175.31 394.45,350.64 591.67,525.94 214.7,-1653.04 555.71,-2591.08 1723.24,-4132.62 -50.45,-78.48 -79.69,-171.86 -79.69,-272.08 0,-278.35 225.67,-504.01 504.01,-504.01 278.34,0 504.01,225.67 504.01,504.01 0,278.34 -225.68,504.01 -504.01,504.01 -65.25,0 -127.63,-12.4 -184.88,-35 -828.03,1162.26 -1567.14,2538.03 -1721.61,4023.33 51.12,270.27 98.64,521.41 149.76,791.67 -87.67,21.93 -171.69,62.98 -259.35,84.9 -102.27,-241.04 -204.52,-482.12 -306.79,-723.16 -255.67,-226.45 -511.31,-452.9 -766.98,-679.34 37.46,-405.52 76.72,-811.68 0,-1468.21 -190.42,-170.21 -455.66,-350.49 -674.7,-475.23 -91.11,90.53 -216.64,146.52 -355.27,146.52 -278.37,0 -504.01,-225.64 -504.01,-504.01 0,-278.37 225.64,-504.01 504.01,-504.01zm4119.82 -1424.42c145.22,0 262.97,117.74 262.97,262.97 0,145.22 -117.75,262.97 -262.97,262.97 -145.23,0 -262.97,-117.75 -262.97,-262.97 0,-145.23 117.74,-262.97 262.97,-262.97z"/>
   <path class="fil11 str0" d="M4111.8 8273.34c278.34,0 504.01,225.67 504.01,504.01 0,224.84 -147.28,415.28 -350.61,480.19l0 4275.14 517.91 782.3 -134.64 271.07 -690.06 -965.73 -21.53 -4370.18c-192.1,-71.13 -329.1,-255.95 -329.1,-472.79 0,-278.35 225.67,-504.01 504.01,-504.01zm0 241.04c145.22,0 262.97,117.74 262.97,262.97 0,145.22 -117.75,262.96 -262.97,262.96 -145.23,0 -262.97,-117.74 -262.97,-262.96 0,-145.23 117.74,-262.97 262.97,-262.97z"/>
   <path class="fil12 str0" d="M2796.96 11012.6c278.34,0 504.01,225.68 504.01,504.01 0,163.81 -78.17,309.35 -199.25,401.42l352.18 511.85 -43.35 3184.63 439.67 578.55 -149.61 301.18 -574.93 -792.07 0 -3177.53 -283.42 -506.08c-14.93,1.34 -30.05,2.07 -45.31,2.07 -278.35,0 -504.01,-225.68 -504.01,-504.01 0,-278.34 225.67,-504.01 504.01,-504.01zm0 241.04c145.22,0 262.96,117.74 262.96,262.97 0,145.23 -117.74,262.97 -262.96,262.97 -145.23,0 -262.97,-117.74 -262.97,-262.97 0,-145.23 117.74,-262.97 262.97,-262.97z"/>
   <path class="fil13 str0" d="M14718.16 21290.22c278.34,0 504.01,225.68 504.01,504.01 0,278.35 -225.68,504.01 -504.01,504.01 -278.34,0 -504.01,-225.67 -504.01,-504.01 0,-94.21 25.86,-182.37 70.89,-257.81l-772.13 -772.13 -20.97 -1885.81 284.81 -116.68 21.02 1892.9 676.99 698.1c72.16,-39.88 155.11,-62.58 243.4,-62.58zm0 241.04c145.23,0 262.97,117.75 262.97,262.97 0,145.23 -117.74,262.97 -262.97,262.97 -145.22,0 -262.97,-117.74 -262.97,-262.97 0,-145.22 117.75,-262.97 262.97,-262.97z"/>
   <path class="fil14 str0" d="M23418.01 15570.68c278.34,0 504.01,225.67 504.01,504.01 0,278.34 -225.68,504.01 -504.01,504.01 -232.84,0 -428.82,-157.96 -486.65,-372.53l-2099.21 0 0 -262.97 2093.82 21.96c50.04,-225.68 251.3,-394.48 492.03,-394.48zm0 241.04c145.23,0 262.97,117.74 262.97,262.97 0,145.22 -117.74,262.97 -262.97,262.97 -145.23,0 -262.97,-117.75 -262.97,-262.97 0,-145.23 117.74,-262.97 262.97,-262.97z"/>
  </g>
 </g>
</svg>
